<?xml version="1.0" encoding="UTF-8"?>
<svg xmlns="http://www.w3.org/2000/svg" xmlns:xlink="http://www.w3.org/1999/xlink" viewBox="0 0 50 50" width="24" height="24">
<g id="surface26189027">
<path style="fill-rule:nonzero;fill:#fa8131;fill-opacity:1;stroke-width:30;stroke-linecap:butt;stroke-linejoin:round;stroke:rgb(98.039216%,50.588238%,19.215687%);stroke-opacity:1;stroke-miterlimit:10;" d="M 130.723641 68.794976 C 130.723641 83.331337 125.433411 96.611857 116.642523 106.86266 L 161.350466 151.68049 L 151.68049 161.350466 L 106.423116 116.202978 C 96.800233 123.172897 85.011025 127.285776 72.232841 127.285776 C 39.973423 127.285776 13.75774 101.070093 13.75774 68.794976 C 13.75774 36.535558 39.973423 10.319875 72.232841 10.319875 C 104.507958 10.319875 130.723641 36.535558 130.723641 68.794976 Z M 20.63347 68.794976 C 20.63347 97.333966 43.693852 120.394348 72.232841 120.394348 C 100.787529 120.394348 123.832213 97.333966 123.832213 68.794976 C 123.832213 40.255987 100.787529 17.195605 72.232841 17.195605 C 43.693852 17.195605 20.63347 40.255987 20.63347 68.794976 Z M 20.63347 68.794976 " transform="matrix(0.248837,0,0,0.248837,3.6,3.6)"/>
<path style=" stroke:none;fill-rule:nonzero;fill:rgb(0%,0%,0%);fill-opacity:1;" d="M 21.574219 6.167969 C 13.546875 6.167969 7.023438 12.691406 7.023438 20.71875 C 7.023438 28.75 13.546875 35.273438 21.574219 35.273438 C 24.753906 35.273438 27.6875 34.25 30.082031 32.515625 L 41.34375 43.75 L 43.75 41.34375 L 32.625 30.191406 C 34.8125 27.640625 36.128906 24.335938 36.128906 20.71875 C 36.128906 12.691406 29.605469 6.167969 21.574219 6.167969 Z M 21.574219 7.878906 C 28.679688 7.878906 34.414062 13.617188 34.414062 20.71875 C 34.414062 27.820312 28.679688 33.558594 21.574219 33.558594 C 14.472656 33.558594 8.734375 27.820312 8.734375 20.71875 C 8.734375 13.617188 14.472656 7.878906 21.574219 7.878906 Z M 21.574219 7.878906 "/>
</g>
</svg>
